<svg width="186" height="66" viewBox="0 0 186 66" fill="none" xmlns="http://www.w3.org/2000/svg">
<path d="M26.1629 27.096C25.9069 26.808 25.5069 26.408 24.9629 25.896C24.3869 25.384 23.8589 24.92 23.3789 24.504C22.8669 24.056 22.5469 23.784 22.4189 23.688V23.304C22.8989 22.632 23.4269 21.992 24.0029 21.384C24.5469 20.776 25.0589 20.264 25.5389 19.848C26.0189 19.4 26.3229 19.144 26.4509 19.08H26.7869C28.0669 19.976 28.9789 20.696 29.5229 21.24C30.0669 21.752 30.3389 22.248 30.3389 22.728C30.3389 23.592 29.0909 25.048 26.5949 27.096H26.1629ZM22.8509 35.448C22.1469 34.744 21.4749 34.104 20.8349 33.528C20.1629 32.952 19.5069 32.408 18.8669 31.896V31.464C19.1869 31.016 19.6349 30.472 20.2109 29.832C20.7549 29.16 21.2989 28.536 21.8429 27.96C22.3869 27.384 22.7869 27.016 23.0429 26.856H23.4749C24.3069 27.368 24.9949 27.848 25.5389 28.296C26.0509 28.712 26.4509 29.128 26.7389 29.544C27.2829 28.872 27.9069 28.168 28.6109 27.432C29.3149 26.664 29.8269 26.184 30.1469 25.992H30.5309C31.8109 26.792 32.7549 27.512 33.3629 28.152C34.0029 28.76 34.3229 29.384 34.3229 30.024C34.3229 31.24 33.0429 32.76 30.4829 34.584H30.0509C29.5069 34.04 28.9789 33.544 28.4669 33.096C27.9549 32.616 27.4749 32.184 27.0269 31.8C26.5149 32.824 25.2669 34.04 23.2829 35.448H22.8509ZM14.56 59.816C12.032 59.816 9.728 59.576 7.648 59.096C5.568 58.648 3.904 57.816 2.656 56.6C1.408 55.352 0.784 53.592 0.784 51.32C0.784 49.368 1.184 47.032 1.984 44.312L3.424 44.552C3.392 44.84 3.376 45.112 3.376 45.368C3.376 45.624 3.376 45.864 3.376 46.088C3.376 47.88 3.888 49.192 4.912 50.024C5.968 50.856 7.552 51.384 9.664 51.608C11.776 51.832 14.464 51.944 17.728 51.944C19.936 51.944 22.208 51.816 24.544 51.56C26.88 51.304 29.152 50.952 31.36 50.504C33.6 50.024 35.664 49.48 37.552 48.872C39.472 48.264 41.104 47.624 42.448 46.952C43.824 46.248 45.104 45.432 46.288 44.504C47.472 43.544 48.384 42.648 49.024 41.816L50.608 39.704C51.184 38.936 51.872 38.552 52.672 38.552C53.312 38.552 53.904 38.712 54.448 39.032C55.024 39.352 55.68 39.512 56.416 39.512C56.864 39.512 57.2 39.704 57.424 40.088C57.68 40.472 57.808 40.904 57.808 41.384C57.808 42.44 57.472 43.24 56.8 43.784C56.16 44.328 55.504 44.6 54.832 44.6C53.84 44.6 53.072 44.424 52.528 44.072C51.984 43.688 51.488 43.496 51.04 43.496C50.72 43.496 50.4 43.656 50.08 43.976C49.76 44.296 49.328 44.904 48.784 45.8C46.352 49.896 43.632 52.776 40.624 54.44C38.928 55.368 37.024 56.184 34.912 56.888C32.8 57.56 30.576 58.12 28.24 58.568C25.936 58.984 23.616 59.288 21.28 59.48C18.944 59.704 16.704 59.816 14.56 59.816ZM49.9446 65.504C49.2406 64.8 48.5686 64.144 47.9286 63.536C47.2566 62.96 46.6006 62.416 45.9606 61.904V61.472C46.2486 61.056 46.6806 60.512 47.2566 59.84C47.8006 59.2 48.3606 58.576 48.9366 57.968C49.4806 57.392 49.8806 57.04 50.1366 56.912H50.5686C51.3686 57.392 52.0406 57.84 52.5846 58.256C53.1286 58.672 53.5446 59.104 53.8326 59.552C54.4086 58.848 55.0486 58.112 55.7526 57.344C56.4566 56.608 56.9526 56.16 57.2406 56H57.6246C58.9046 56.8 59.8486 57.504 60.4566 58.112C61.0966 58.752 61.4166 59.392 61.4166 60.032C61.4166 61.248 60.1366 62.768 57.5766 64.592H57.1446C56.0566 63.504 55.0326 62.576 54.0726 61.808C53.6246 62.832 52.3926 64.064 50.3766 65.504H49.9446ZM54.8125 45C54.5565 45 54.2685 44.856 53.9485 44.568C53.5965 44.28 53.4205 43.8 53.4205 43.128C53.4205 42.136 53.7405 41.352 54.3805 40.776C54.9885 40.2 55.6605 39.912 56.3965 39.912C57.3565 39.912 58.1085 39.72 58.6525 39.336C59.1965 38.952 59.6765 38.36 60.0925 37.56L61.1005 37.752C60.4925 40.408 59.6125 42.28 58.4605 43.368C57.3405 44.456 56.1245 45 54.8125 45ZM65.9159 60.776L65.8199 59.72C68.8599 58.088 71.5799 56.408 73.9799 54.68C76.3799 52.92 78.0919 50.92 79.1159 48.68C79.5959 47.656 80.0599 46.376 80.5079 44.84C80.9559 43.304 81.4359 41.56 81.9479 39.608L83.3399 39.8C83.0839 41.464 82.9079 42.616 82.8119 43.256C82.7159 43.896 82.6679 44.392 82.6679 44.744C82.6679 46.792 83.1159 48.424 84.0119 49.64C84.9399 50.824 86.2359 51.416 87.8999 51.416C88.6679 51.416 89.2119 51.704 89.5319 52.28C89.8519 52.824 90.0119 53.448 90.0119 54.152C90.0119 55.368 89.7559 56.328 89.2439 57.032C88.7639 57.736 88.1719 58.248 87.4679 58.568C86.7959 58.856 86.1559 59 85.5479 59C84.1399 59 83.0039 58.664 82.1399 57.992C81.2759 57.288 80.6519 56.424 80.2679 55.4C79.8839 54.344 79.6919 53.288 79.6919 52.232H79.5959C79.1799 53.32 78.6199 54.408 77.9159 55.496C77.2439 56.552 76.4439 57.592 75.5159 58.616C74.8119 59.096 73.7079 59.496 72.2039 59.816C70.6999 60.136 68.6039 60.456 65.9159 60.776ZM85.5625 59C84.2185 59 83.5465 58.088 83.5465 56.264C83.5465 55.048 83.7865 54.088 84.2665 53.384C84.7465 52.68 85.3225 52.184 85.9945 51.896C86.6985 51.576 87.3545 51.416 87.9625 51.416C89.4665 51.416 91.0665 51.256 92.7625 50.936C94.4905 50.584 96.1385 50.008 97.7065 49.208C99.3065 48.376 100.651 47.256 101.739 45.848C100.971 45.816 99.9945 45.736 98.8105 45.608C97.6265 45.448 96.3785 45.256 95.0665 45.032C93.7865 44.776 92.6025 44.504 91.5145 44.216C90.4265 43.896 89.6105 43.592 89.0665 43.304L88.6825 42.824C88.7465 42.568 88.8745 42.2 89.0665 41.72C89.2585 41.208 89.4825 40.696 89.7385 40.184C90.0265 39.64 90.3305 39.176 90.6505 38.792C91.0025 38.408 91.3385 38.216 91.6585 38.216C91.8825 38.216 92.1065 38.28 92.3305 38.408C92.5865 38.504 92.7145 38.68 92.7145 38.936V39.128C93.6745 39.448 94.8585 39.768 96.2665 40.088C97.7065 40.408 99.1625 40.696 100.635 40.952C102.107 41.176 103.371 41.352 104.427 41.48L106.395 41.72L106.491 42.344C105.691 43.56 104.875 44.792 104.043 46.04C103.211 47.256 102.315 48.472 101.355 49.688C100.011 51.352 98.5705 52.904 97.0345 54.344C95.5305 55.752 93.8345 56.888 91.9465 57.752C90.0905 58.584 87.9625 59 85.5625 59ZM90.3929 42.208C89.9129 42.208 89.6729 42 89.6729 41.584C89.6729 41.264 89.8809 40.72 90.2969 39.952C90.7449 39.184 91.3209 38.336 92.0249 37.408C92.7289 36.48 93.4809 35.632 94.2809 34.864C94.9209 34.256 95.8329 33.536 97.0169 32.704C98.2329 31.84 99.7209 30.832 101.481 29.68C102.153 29.264 102.681 28.88 103.065 28.528C103.481 28.144 103.801 27.648 104.025 27.04C104.249 26.432 104.377 25.536 104.409 24.352L104.745 14.416C104.809 12.144 105.113 9.872 105.657 7.6C106.233 5.296 107.081 2.912 108.201 0.447997L109.209 0.831998C109.081 1.44 108.953 2.272 108.825 3.328C108.729 4.352 108.649 5.6 108.585 7.072C108.521 8.672 108.457 10.048 108.393 11.2C108.361 12.32 108.313 13.328 108.249 14.224C108.217 15.12 108.153 16 108.057 16.864C107.993 17.728 107.913 18.688 107.817 19.744C107.625 21.664 107.289 23.504 106.809 25.264C106.361 27.024 105.641 28.608 104.649 30.016C104.169 30.688 103.609 31.328 102.969 31.936C102.361 32.512 101.641 33.024 100.809 33.472C99.5289 34.176 98.4089 34.816 97.4489 35.392C96.5209 35.968 95.7849 36.496 95.2409 36.976C94.0569 38.032 93.0649 39.296 92.2649 40.768C91.7849 41.728 91.1609 42.208 90.3929 42.208ZM120.342 54.152L119.286 53.912C119.446 53.176 119.606 52.008 119.766 50.408C119.926 48.808 120.054 46.856 120.15 44.552L120.582 33.08C120.646 31.64 120.71 30.376 120.773 29.288C120.87 28.2 121.046 27.128 121.302 26.072C121.558 24.984 121.942 23.752 122.454 22.376C122.998 21 123.718 19.304 124.614 17.288L125.622 17.672C125.366 18.312 125.142 19.448 124.95 21.08C124.79 22.68 124.63 24.776 124.47 27.368L123.654 40.904C123.526 42.952 123.19 45.08 122.646 47.288C122.134 49.496 121.366 51.784 120.342 54.152ZM134.545 60.776L134.353 59.672C135.377 59.128 136.513 58.392 137.761 57.464C139.041 56.504 140.305 55.496 141.553 54.44C142.833 53.352 143.985 52.328 145.009 51.368C146.033 50.376 146.801 49.576 147.313 48.968C147.825 48.36 148.353 47.528 148.897 46.472C149.441 45.384 149.985 44.184 150.529 42.872C151.105 41.528 151.633 40.168 152.113 38.792L153.553 39.032C152.337 44.056 150.977 48.136 149.473 51.272C148.001 54.408 146.561 56.536 145.153 57.656C144.289 58.104 142.961 58.584 141.169 59.096C139.409 59.608 137.201 60.168 134.545 60.776ZM162.013 54.152L160.957 53.912C161.117 53.176 161.277 52.008 161.437 50.408C161.597 48.808 161.725 46.856 161.821 44.552L162.253 33.08C162.317 31.64 162.381 30.376 162.445 29.288C162.541 28.2 162.717 27.128 162.973 26.072C163.229 24.984 163.613 23.752 164.125 22.376C164.669 21 165.389 19.304 166.285 17.288L167.293 17.672C167.037 18.312 166.813 19.448 166.621 21.08C166.461 22.68 166.301 24.776 166.141 27.368L165.325 40.904C165.197 42.952 164.861 45.08 164.317 47.288C163.805 49.496 163.037 51.784 162.013 54.152ZM169.889 62.216L169.793 61.16C170.593 60.744 171.505 60.232 172.529 59.624C173.585 59.016 174.657 58.344 175.745 57.608C176.833 56.872 177.825 56.136 178.721 55.4C179.649 54.664 180.401 53.96 180.977 53.288C181.553 52.616 181.841 52.024 181.841 51.512C181.841 50.776 181.345 49.816 180.353 48.632C179.361 47.416 177.649 46.248 175.217 45.128C175.345 44.712 175.569 44.136 175.889 43.4C176.241 42.664 176.625 41.88 177.041 41.048C177.457 40.184 177.857 39.384 178.241 38.648C178.657 37.912 179.009 37.352 179.297 36.968H179.825C180.721 37.512 181.569 38.216 182.369 39.08C183.201 39.944 183.873 40.968 184.385 42.152C184.929 43.336 185.201 44.696 185.201 46.232C185.201 47.416 185.041 48.68 184.721 50.024C184.401 51.368 183.937 52.68 183.329 53.96C182.753 55.208 182.081 56.312 181.313 57.272C180.577 58.232 179.777 58.936 178.913 59.384C177.249 60.216 174.241 61.16 169.889 62.216Z" fill="#12372A"/>
</svg>
