<svg width="198" height="70" viewBox="0 0 198 70" fill="none" xmlns="http://www.w3.org/2000/svg">
<path d="M22.9915 38.592C22.3835 38.016 21.8555 37.52 21.4075 37.104C20.9275 36.688 20.4955 36.304 20.1115 35.952C19.6955 35.6 19.2795 35.264 18.8635 34.944V34.512C19.0875 34.16 19.4075 33.744 19.8235 33.264C20.2075 32.784 20.6395 32.304 21.1195 31.824C21.5675 31.312 21.9835 30.864 22.3675 30.48C22.7515 30.096 23.0235 29.84 23.1835 29.712H23.6635C24.4635 30.224 25.1355 30.704 25.6795 31.152C26.1915 31.568 26.5915 31.984 26.8795 32.4C27.4555 31.664 28.0955 30.944 28.7995 30.24C29.5035 29.504 29.9995 29.04 30.2875 28.848H30.7195C32.0635 29.68 33.0395 30.416 33.6475 31.056C34.2875 31.696 34.6075 32.352 34.6075 33.024C34.6075 33.696 34.2395 34.432 33.5035 35.232C32.7675 36.032 31.7915 36.864 30.5755 37.728H30.1435C29.5675 37.152 29.0235 36.656 28.5115 36.24C28.0315 35.792 27.5835 35.376 27.1675 34.992C26.5915 36.048 25.3275 37.248 23.3755 38.592H22.9915ZM26.3515 30.096C26.0315 29.776 25.6315 29.392 25.1515 28.944C24.6715 28.496 24.2075 28.08 23.7595 27.696C23.2795 27.28 22.8955 26.944 22.6075 26.688V26.304C23.0235 25.728 23.5035 25.136 24.0475 24.528C24.5915 23.92 25.1195 23.392 25.6315 22.944C26.1115 22.496 26.4315 22.208 26.5915 22.08H26.9755C28.2875 22.976 29.1995 23.696 29.7115 24.24C30.2555 24.752 30.5275 25.248 30.5275 25.728C30.5275 26.24 30.2235 26.832 29.6155 27.504C29.0395 28.176 28.0955 29.04 26.7835 30.096H26.3515ZM14.944 62.96C12.256 62.96 9.824 62.672 7.648 62.096C5.504 61.552 3.792 60.608 2.512 59.264C1.264 57.888 0.64 56.016 0.64 53.648C0.64 51.44 1.072 48.896 1.936 46.016L3.472 46.256C3.44 46.544 3.408 46.832 3.376 47.12C3.376 47.376 3.376 47.68 3.376 48.032C3.376 49.312 3.648 50.352 4.192 51.152C4.736 51.952 5.552 52.576 6.64 53.024C7.856 53.472 9.408 53.776 11.296 53.936C13.216 54.096 15.472 54.176 18.064 54.176C20.432 54.176 22.816 54.048 25.216 53.792C27.648 53.536 30 53.184 32.272 52.736C34.544 52.256 36.672 51.712 38.656 51.104C40.64 50.496 42.368 49.84 43.84 49.136C45.152 48.496 46.384 47.744 47.536 46.88C48.688 46.016 49.632 45.168 50.368 44.336C50.688 43.952 51.008 43.568 51.328 43.184C51.648 42.768 51.968 42.352 52.288 41.936C52.704 41.392 53.072 41.008 53.392 40.784C53.744 40.56 54.144 40.448 54.592 40.448C55.232 40.448 55.856 40.608 56.464 40.928C57.072 41.248 57.808 41.408 58.672 41.408C59.184 41.408 59.568 41.648 59.824 42.128C60.08 42.608 60.208 43.216 60.208 43.952C60.208 45.264 59.872 46.24 59.2 46.88C58.56 47.52 57.84 47.84 57.04 47.84C56.208 47.84 55.52 47.728 54.976 47.504C54.432 47.248 53.968 47.008 53.584 46.784C53.232 46.56 52.864 46.448 52.48 46.448C52.16 46.448 51.856 46.592 51.568 46.88C51.28 47.168 50.912 47.664 50.464 48.368C49.024 50.64 47.584 52.528 46.144 54.032C44.704 55.504 43.2 56.672 41.632 57.536C40 58.432 38.128 59.232 36.016 59.936C33.904 60.608 31.648 61.168 29.248 61.616C26.912 62.064 24.528 62.4 22.096 62.624C19.664 62.848 17.28 62.96 14.944 62.96ZM52.5696 69.648C51.9616 69.04 51.4336 68.528 50.9856 68.112C50.5056 67.696 50.0736 67.312 49.6896 66.96C49.2736 66.608 48.8576 66.272 48.4416 65.952V65.52C48.6336 65.2 48.9376 64.8 49.3536 64.32C49.7376 63.84 50.1536 63.344 50.6016 62.832C51.0496 62.32 51.4816 61.872 51.8976 61.488C52.2816 61.104 52.5696 60.864 52.7616 60.768H53.1936C53.9936 61.248 54.6656 61.696 55.2096 62.112C55.7536 62.56 56.1696 62.992 56.4576 63.408C57.0656 62.672 57.7056 61.936 58.3776 61.2C59.0816 60.496 59.5776 60.048 59.8656 59.856H60.2496C61.5616 60.688 62.5376 61.424 63.1776 62.064C63.8496 62.704 64.1856 63.36 64.1856 64.032C64.1856 64.704 63.8176 65.44 63.0816 66.24C62.3456 67.04 61.3696 67.872 60.1536 68.736H59.7216C59.1456 68.16 58.6016 67.648 58.0896 67.2C57.6096 66.784 57.1456 66.384 56.6976 66C56.1856 67.056 54.9376 68.272 52.9536 69.648H52.5696ZM57.0625 48C56.7105 48 56.3585 47.776 56.0065 47.328C55.6225 46.88 55.4305 46.144 55.4305 45.12C55.4305 43.936 55.7665 43.056 56.4385 42.48C57.0785 41.872 57.8145 41.568 58.6465 41.568C59.6705 41.568 60.4865 41.376 61.0945 40.992C61.7345 40.576 62.2945 39.888 62.7745 38.928L63.8785 39.168C63.4625 41.312 62.9185 43.04 62.2465 44.352C61.5745 45.664 60.7905 46.608 59.8945 47.184C59.0305 47.728 58.0865 48 57.0625 48ZM73.2741 64.064L73.0821 62.96C75.1941 61.776 77.1941 60.56 79.0821 59.312C81.0021 58.064 82.6821 56.752 84.1221 55.376C85.5941 54 86.6661 52.544 87.3381 51.008C87.8501 49.952 88.3301 48.608 88.7781 46.976C89.2581 45.344 89.7701 43.456 90.3141 41.312L91.8501 41.504C91.6581 42.752 91.4981 43.728 91.3701 44.432C91.2741 45.104 91.2101 45.616 91.1781 45.968C91.1461 46.32 91.1301 46.624 91.1301 46.88C91.1301 48.928 91.6261 50.512 92.6181 51.632C93.6101 52.752 94.8901 53.312 96.4581 53.312C97.2261 53.312 97.7701 53.632 98.0901 54.272C98.4101 54.912 98.5701 55.712 98.5701 56.672C98.5701 57.888 98.3461 58.896 97.8981 59.696C97.4501 60.464 96.8901 61.04 96.2181 61.424C95.5461 61.808 94.8421 62 94.1061 62C92.6981 62 91.5461 61.648 90.6501 60.944C89.7861 60.208 89.1461 59.296 88.7301 58.208C88.3461 57.088 88.1541 55.936 88.1541 54.752H88.0101C87.7221 55.616 87.3541 56.48 86.9061 57.344C86.4581 58.176 85.9621 58.96 85.4181 59.696C84.9061 60.432 84.3621 61.088 83.7861 61.664C83.4021 61.888 82.8581 62.112 82.1541 62.336C81.4501 62.592 80.6341 62.816 79.7061 63.008C78.7781 63.2 77.7541 63.376 76.6341 63.536C75.5461 63.728 74.4261 63.904 73.2741 64.064ZM94.0938 62C93.4537 62 92.9577 61.712 92.6057 61.136C92.2217 60.56 92.0297 59.696 92.0297 58.544C92.0297 57.488 92.1897 56.624 92.5098 55.952C92.8297 55.248 93.2457 54.688 93.7577 54.272C94.1737 53.952 94.6058 53.712 95.0538 53.552C95.5338 53.392 96.0138 53.312 96.4938 53.312C98.4458 53.312 100.334 53.12 102.158 52.736C103.982 52.32 105.646 51.712 107.15 50.912C108.654 50.112 109.918 49.104 110.942 47.888C110.462 47.856 109.758 47.808 108.83 47.744C107.902 47.68 106.862 47.584 105.71 47.456C104.59 47.296 103.47 47.136 102.35 46.976C101.23 46.816 100.238 46.64 99.3738 46.448C98.5098 46.224 97.8858 46 97.5018 45.776L97.1658 45.248C97.3578 44.544 97.5818 43.872 97.8378 43.232C98.0938 42.56 98.3658 41.952 98.6538 41.408C98.9738 40.864 99.2938 40.432 99.6138 40.112C99.9338 39.792 100.222 39.632 100.478 39.632C100.702 39.632 100.926 39.696 101.15 39.824C101.406 39.92 101.534 40.096 101.534 40.352V40.544C102.59 40.832 103.838 41.104 105.278 41.36C106.718 41.616 108.142 41.84 109.55 42.032C110.958 42.224 112.11 42.368 113.006 42.464L116.174 42.752L116.222 43.52C115.294 44.992 114.35 46.432 113.39 47.84C112.462 49.248 111.502 50.608 110.51 51.92C109.102 53.68 107.598 55.344 105.998 56.912C104.398 58.448 102.622 59.68 100.67 60.608C98.7178 61.536 96.5258 62 94.0938 62ZM99.2523 43.256C98.7722 43.256 98.5322 43.032 98.5322 42.584C98.5322 42.328 98.6922 41.896 99.0122 41.288C99.3003 40.712 99.7163 40.04 100.26 39.272C100.804 38.504 101.46 37.736 102.228 36.968C102.996 36.168 103.844 35.448 104.772 34.808C105.668 34.168 106.66 33.48 107.748 32.744C108.836 32.008 110.036 31.192 111.348 30.296C111.892 29.944 112.324 29.592 112.644 29.24C112.996 28.856 113.268 28.376 113.46 27.8C113.652 27.192 113.764 26.376 113.796 25.352L114.132 15.176C114.196 13.8 114.292 12.52 114.42 11.336C114.58 10.12 114.788 8.936 115.044 7.784C115.3 6.632 115.652 5.448 116.1 4.232C116.58 2.984 117.156 1.624 117.828 0.151999L118.884 0.535997C118.724 1.144 118.564 2.088 118.404 3.368C118.244 4.616 118.132 6.056 118.068 7.688C118.004 9.096 117.94 10.344 117.876 11.432C117.812 12.52 117.748 13.528 117.684 14.456C117.652 15.384 117.588 16.312 117.492 17.24C117.428 18.136 117.364 19.096 117.3 20.12C117.108 21.976 116.82 23.768 116.436 25.496C116.052 27.192 115.444 28.744 114.612 30.152C114.1 31.112 113.428 31.992 112.596 32.792C111.796 33.56 110.788 34.248 109.572 34.856C108.388 35.464 107.332 36.04 106.404 36.584C105.508 37.128 104.772 37.656 104.196 38.168C102.98 39.192 102.004 40.392 101.268 41.768C101.044 42.216 100.756 42.568 100.404 42.824C100.084 43.112 99.7003 43.256 99.2523 43.256ZM129.667 57.152L128.563 56.912C128.691 56.208 128.851 55.04 129.043 53.408C129.235 51.776 129.379 49.648 129.475 47.024L129.955 34.784C130.051 33.216 130.147 31.856 130.243 30.704C130.339 29.552 130.515 28.432 130.771 27.344C131.059 26.224 131.459 25.008 131.971 23.696C132.483 22.352 133.171 20.736 134.035 18.848L135.091 19.232C134.835 19.904 134.611 21.056 134.419 22.688C134.227 24.288 134.051 26.464 133.891 29.216L133.075 42.992C132.947 45.296 132.595 47.648 132.019 50.048C131.475 52.416 130.691 54.784 129.667 57.152ZM144.012 64.448L143.772 63.344C144.572 62.832 145.516 62.192 146.604 61.424C147.692 60.624 148.812 59.76 149.964 58.832C151.116 57.872 152.236 56.912 153.324 55.952C154.444 54.992 155.42 54.08 156.252 53.216C157.116 52.352 157.772 51.616 158.22 51.008C158.668 50.4 159.084 49.744 159.468 49.04C159.884 48.304 160.284 47.52 160.668 46.688C161.084 45.824 161.484 44.896 161.868 43.904C162.252 42.912 162.652 41.856 163.068 40.736L164.604 40.976C164.06 43.248 163.452 45.424 162.78 47.504C162.108 49.584 161.388 51.488 160.62 53.216C159.852 54.944 159.068 56.448 158.268 57.728C157.468 59.008 156.668 59.984 155.868 60.656C155.548 60.848 155.068 61.072 154.428 61.328C153.82 61.584 153.116 61.84 152.316 62.096C151.516 62.384 150.636 62.656 149.676 62.912C148.748 63.2 147.788 63.472 146.796 63.728C145.836 63.984 144.908 64.224 144.012 64.448ZM172.792 57.152L171.688 56.912C171.816 56.208 171.976 55.04 172.168 53.408C172.36 51.776 172.504 49.648 172.6 47.024L173.08 34.784C173.176 33.216 173.272 31.856 173.368 30.704C173.464 29.552 173.64 28.432 173.896 27.344C174.184 26.224 174.584 25.008 175.096 23.696C175.608 22.352 176.296 20.736 177.16 18.848L178.216 19.232C177.96 19.904 177.736 21.056 177.544 22.688C177.352 24.288 177.176 26.464 177.016 29.216L176.2 42.992C176.072 45.296 175.72 47.648 175.144 50.048C174.6 52.416 173.816 54.784 172.792 57.152ZM180.575 65.744L180.383 64.64C181.567 64 182.767 63.328 183.984 62.624C185.231 61.92 186.416 61.184 187.536 60.416C188.688 59.616 189.712 58.848 190.608 58.112C191.504 57.376 192.208 56.688 192.72 56.048C193.264 55.376 193.536 54.8 193.536 54.32C193.536 53.872 193.296 53.296 192.816 52.592C192.368 51.888 191.6 51.136 190.512 50.336C189.456 49.504 188 48.688 186.144 47.888C186.304 47.344 186.56 46.656 186.912 45.824C187.264 44.96 187.664 44.064 188.112 43.136C188.56 42.176 188.992 41.312 189.408 40.544C189.824 39.744 190.176 39.152 190.464 38.768H191.04C192.128 39.376 193.12 40.16 194.016 41.12C194.944 42.048 195.68 43.168 196.224 44.48C196.8 45.76 197.088 47.216 197.088 48.848C197.088 50.256 196.896 51.68 196.512 53.12C196.128 54.56 195.616 55.936 194.976 57.248C194.336 58.528 193.632 59.632 192.864 60.56C192.096 61.488 191.328 62.16 190.56 62.576C189.76 62.96 188.496 63.424 186.768 63.968C185.04 64.544 182.975 65.136 180.575 65.744Z" fill="#12372A"/>
</svg>
